<svg width="22" height="26" viewBox="0 0 22 26" fill="none" xmlns="http://www.w3.org/2000/svg">
<path fill-rule="evenodd" clip-rule="evenodd" d="M11.0172 2.50444e-07C11.5695 0.000386917 12.0168 0.448414 12.0165 1.00071L12.0013 22.5873L19.6267 14.9756C20.0176 14.5853 20.6507 14.5858 21.0409 14.9768C21.4311 15.3677 21.4305 16.0008 21.0396 16.391L11.7063 25.7077C11.3159 26.0973 10.6837 26.0973 10.2933 25.7077L0.960026 16.391C0.569159 16.0008 0.568586 15.3677 0.958773 14.9768C1.34895 14.5858 1.98211 14.5853 2.37299 14.9756L10.0013 22.5902L10.0165 0.999294C10.0168 0.447014 10.4649 -0.000386416 11.0172 2.50444e-07Z" fill="white"/>
</svg>
