<svg width="80" height="45" viewBox="0 0 80 45" fill="none" xmlns="http://www.w3.org/2000/svg">
<path d="M10 32.9585H6.73021C5.77859 32.9585 5 32.1411 5 31.142V19.3069M68.4252 32.9585H73.2698C74.2214 32.9585 75 32.1411 75 31.142V24.3763C75 24.0615 74.8518 23.7651 74.5999 23.5762L69.2116 19.5356C69.0381 19.4055 68.9116 19.2225 68.8512 19.0142L65.72 8.22137C65.596 7.79402 65.2045 7.5 64.7596 7.5H6C5.44771 7.5 5 7.94772 5 8.5V19.3069M22.2727 19.321L5 19.3069M5 19.3069L5.02681 19.2929" stroke="black" stroke-width="2" stroke-linejoin="round"/>
<path d="M15.2126 37.4998C12.5848 37.4998 10.4546 35.2633 10.4546 32.5045C10.4546 29.7457 12.5848 27.5093 15.2126 27.5093C17.8404 27.5093 19.9707 29.7457 19.9707 32.5045C19.9707 35.2633 17.8404 37.4998 15.2126 37.4998Z" stroke="black" stroke-width="2"/>
<path d="M63.3213 37.4998C60.6935 37.4998 58.5632 35.2633 58.5632 32.5045C58.5632 29.7457 60.6935 27.5093 63.3213 27.5093C65.9491 27.5093 68.0793 29.7457 68.0793 32.5045C68.0793 35.2633 65.9491 37.4998 63.3213 37.4998Z" stroke="black" stroke-width="2"/>
<path d="M58.2166 32.9585H20.4542" stroke="black" stroke-width="2"/>
<path d="M74.9136 29.3254H69.8095" stroke="black" stroke-width="2" stroke-linecap="round"/>
<path d="M47.3167 19.3354H22.2287" stroke="black" stroke-width="2"/>
<path d="M39.5308 7.52808V19.335" stroke="black" stroke-width="2"/>
<path d="M30.0149 7.52808V19.335" stroke="black" stroke-width="2"/>
<path d="M22.2729 7.5V19.3069" stroke="black" stroke-width="2"/>
<path d="M14.0906 8.49976V20.3067" stroke="black" stroke-width="2"/>
<path d="M68.9443 19.3354H56.8329" stroke="black" stroke-width="2"/>
<path d="M60.0437 22.5H58.6361" stroke="black" stroke-width="2" stroke-linecap="round"/>
<path d="M45 23.4998L7.72727 23.4998" stroke="black" stroke-width="2" stroke-linecap="round"/>
<path d="M45.5864 27.5093H21.3637" stroke="black" stroke-width="2" stroke-linecap="round"/>
<path d="M9.54541 27.4998L7.72723 27.4998" stroke="black" stroke-width="2" stroke-linecap="round"/>
<path d="M49.1819 7.52808C48.6296 7.52808 48.1819 7.97579 48.1819 8.52808V31.9584C48.1819 32.5107 48.6296 32.9584 49.1819 32.9584H54.9678C55.5201 32.9584 55.9678 32.5107 55.9678 31.9584V8.52808C55.9678 7.97579 55.5201 7.52808 54.9678 7.52808H49.1819Z" stroke="black" stroke-width="2"/>
<path d="M15.5564 32.6304C15.5564 32.8889 15.466 33.0978 15.352 33.2302C15.2398 33.3606 15.1235 33.4015 15.0315 33.4015C14.9395 33.4015 14.8233 33.3606 14.711 33.2302C14.597 33.0978 14.5066 32.8889 14.5066 32.6304C14.5066 32.372 14.597 32.163 14.711 32.0306C14.8233 31.9003 14.9395 31.8594 15.0315 31.8594C15.1235 31.8594 15.2398 31.9003 15.352 32.0306C15.466 32.163 15.5564 32.372 15.5564 32.6304Z" fill="black" stroke="black" stroke-width="2"/>
<path d="M63.9289 32.3594C63.9289 32.7273 63.6786 32.8593 63.5653 32.8593C63.452 32.8593 63.2017 32.7273 63.2017 32.3594C63.2017 31.9914 63.452 31.8594 63.5653 31.8594C63.6786 31.8594 63.9289 31.9914 63.9289 32.3594Z" fill="black" stroke="black" stroke-width="2"/>
</svg>
