<svg width="80" height="45" viewBox="0 0 80 45" fill="none" xmlns="http://www.w3.org/2000/svg">
<path d="M65.0795 22.2458C64.1323 21.519 63.0882 20.9697 61.9817 20.6061C62.9254 20.3858 63.8783 20.2068 64.8378 20.0696C65.9524 19.9112 66.6578 18.7897 66.3096 17.7188C65.1168 14.0565 64.7904 12.4338 63.0096 10.3977L58.8209 5.60882C58.5452 5.29223 58.1656 5.08363 57.7498 5.02029C57.3341 4.95695 56.9093 5.043 56.5513 5.26306L55.2435 6.06358C54.4967 6.52041 54.1934 7.46742 54.5381 8.26652C54.8787 9.05679 55.3547 10.5135 54.9957 11.8816L54.7625 11.1687C54.603 10.6839 54.2852 10.2663 53.8597 9.98255L51.0907 8.1415C50.0444 7.44562 48.6246 7.72794 47.9262 8.7712C47.2263 9.81654 47.5087 11.2276 48.558 11.925L50.2452 13.0466C50.1905 13.0401 50.1359 13.0342 50.0807 13.0303C46.3748 10.6039 44.0647 10.1907 42.6219 9.83649C39.0989 8.97166 35.7672 8.15501 31.4953 13.7155C30.2353 13.5162 26.666 12.8341 24.2863 11.2109C23.1627 10.4446 21.7245 10.4688 20.6641 11.1952L19.0444 9.6938C17.7144 8.4612 16.416 8.64901 14.5887 8.64901C13.1975 8.64901 12.4362 10.2636 13.321 11.331L16.891 15.6379C17.7366 16.6582 19.076 17.1964 20.4261 17.0197L25.4919 21.1843C26.4273 21.9558 27.6231 22.3419 28.8347 22.2637L31.6067 22.0891L32.3223 23.1417L28.9988 24.723C27.2035 22.4182 24.4499 21.0613 21.4981 21.0613C16.2609 21.0608 12 25.3071 12 30.5266C12 35.7459 16.2609 39.992 21.4981 39.992C26.3046 39.992 30.3032 36.4327 30.9128 31.7623L30.9462 31.7606L34.2581 36.5013C34.3838 36.6813 34.5514 36.8284 34.7464 36.9299C34.9415 37.0315 35.1583 37.0846 35.3784 37.0847H40.9181C41.1356 37.0847 41.3443 36.9986 41.4981 36.8452C41.652 36.6919 41.7384 36.484 41.7384 36.2672C41.7384 35.8153 41.3713 35.4496 40.9181 35.4496H35.5224L32.3775 30.9477H36.7588C38.9126 33.5225 43.0974 32.3277 43.6059 29.058C45.4716 30.1114 47.7249 30.7676 49.8958 30.6995C49.5202 32.2162 49.2109 33.8993 49.0156 35.4496H44.7465C44.2937 35.4496 43.9262 35.8158 43.9262 36.2672C43.9262 36.7185 44.2933 37.0847 44.7465 37.0847H49.2595C49.5938 37.0846 49.9165 36.9624 50.1664 36.7411C50.4162 36.5197 50.576 36.2148 50.6152 35.8839C50.6182 35.8588 50.622 35.8328 50.6251 35.8076C51.2211 36.6887 51.9632 37.4738 52.8198 38.112C59.0461 42.7515 68.0002 38.3139 68.0002 30.5265C68.0002 28.071 67.053 25.7437 65.3714 23.9907C65.5534 23.7171 65.6245 23.3848 65.5704 23.061C65.5162 22.7371 65.3408 22.4458 65.0796 22.2458H65.0795ZM38.4336 22.8768L39.447 20.7573C39.8854 19.8443 40.6123 19.0999 41.5162 18.6385C42.1861 18.2983 49.18 14.7237 49.7889 14.665C50.2473 14.6212 50.7195 14.8575 51.0967 15.1211C50.0572 15.5728 43.9071 18.3783 42.5715 19.4539C41.4765 20.3359 40.6596 21.5136 40.2186 22.8461C39.6235 22.7571 38.9967 22.7734 38.4336 22.8768ZM31.546 19.0846C32.6996 18.8535 32.3052 18.9327 34.3205 18.5287L37.1844 21.6885C36.8258 22.4386 36.4726 23.1775 36.1196 23.9162C35.8356 24.1364 35.5424 24.4212 35.3365 24.6604C34.2799 23.1063 32.7657 20.8785 31.546 19.0846ZM52.9099 16.1246C56.3142 14.7032 57.4302 11.8922 56.3907 8.55364L58.6043 11.8113C58.8728 12.2079 59.226 12.5404 59.6386 12.785C60.0512 13.0296 60.513 13.1803 60.9908 13.2261L63.0843 13.4306C63.4505 14.168 63.571 14.6071 63.9683 15.827C62.1543 15.9956 60.8512 16.9047 60.8512 18.0722C60.8512 18.4493 60.981 18.7973 61.219 19.1034C58.7253 19.7192 55.913 20.7491 54.0016 22.4433C52.6092 20.7193 50.3084 19.2197 47.6198 18.5478C49.2963 17.7238 51.2206 16.8259 52.9099 16.1246ZM57.584 6.68293C62.3777 12.1634 61.7086 11.3926 61.9427 11.6762C61.148 11.5988 60.4637 11.632 59.9625 10.8945L57.1789 6.79793L57.4101 6.65655C57.4375 6.63957 57.4701 6.63289 57.502 6.63773C57.5339 6.64257 57.563 6.6586 57.584 6.68293ZM64.6062 18.451C64.2952 18.4949 63.9563 18.5477 63.5978 18.609C62.8809 18.454 62.5554 18.1807 62.4968 18.0717C62.5922 17.8851 63.2881 17.4556 64.4917 17.4342L64.7488 18.2233C64.7569 18.2476 64.7595 18.2734 64.7565 18.2989C64.7534 18.3243 64.7447 18.3488 64.7311 18.3705C64.7175 18.3923 64.6993 18.4107 64.6777 18.4247C64.6561 18.4386 64.6317 18.4475 64.6062 18.451ZM56.4988 25.8687C56.2236 25.0283 56.4009 25.5703 55.634 23.2272C55.9698 22.9788 56.342 22.74 56.7492 22.5122L59.307 30.3285C59.3597 30.4896 59.346 30.665 59.2689 30.816C59.1919 30.9671 59.0578 31.0815 58.8961 31.134C58.816 31.1602 58.7316 31.1704 58.6476 31.164C58.5635 31.1576 58.4816 31.1347 58.4065 31.0967C58.3314 31.0586 58.2645 31.0062 58.2098 30.9423C58.1551 30.8784 58.1136 30.8044 58.0877 30.7245L56.4988 25.8687ZM59.1772 24.6587L58.2411 21.7977L58.4103 21.7246C60.2339 21.659 62.0324 22.1635 63.5539 23.1675L59.1772 24.6587ZM52.1405 12.5519C52.0835 12.3774 51.9691 12.2272 51.8157 12.1257L49.4686 10.5646C49.3985 10.5181 49.3383 10.4583 49.2914 10.3885C49.2445 10.3188 49.2119 10.2406 49.1954 10.1583C49.1788 10.076 49.1788 9.99122 49.1951 9.90889C49.2115 9.82656 49.244 9.74825 49.2907 9.67844C49.3853 9.53758 49.532 9.43984 49.6988 9.40666C49.8655 9.37347 50.0387 9.40755 50.1803 9.50141L52.9489 11.3425C53.0685 11.4222 53.1578 11.5397 53.2026 11.676L53.8555 13.6703C53.529 13.9531 53.165 14.1864 52.7766 14.3843C52.7595 14.3677 52.7425 14.352 52.7241 14.335L52.1405 12.5519ZM42.2293 11.4239C43.6443 11.7713 45.0085 11.9569 47.9342 13.6371C46.0556 14.5082 42.6193 16.243 40.7711 17.1819C39.5509 17.8018 38.5545 18.8216 37.9657 20.0538L37.9478 20.0913L32.9226 14.547C36.4674 10.0094 38.9032 10.6077 42.2293 11.4239ZM23.3595 12.5603C26.1871 14.4887 30.2886 15.1955 31.4521 15.3638L33.0409 17.1171L30.0134 17.7243C29.6499 17.7979 29.2744 17.7896 28.9145 17.7C28.5546 17.6104 28.2193 17.4418 27.9331 17.2065L22.0007 12.3465C22.4424 12.2111 22.9439 12.2763 23.3595 12.5603ZM18.1561 14.5965L14.584 10.2918C14.584 10.2892 14.5862 10.2845 14.5835 10.2842H14.589C16.4048 10.2842 17.1235 10.1462 17.9271 10.8909C20.75 13.5073 19.4729 12.3921 22.3184 14.7233C21.1221 15.1261 21.4613 15.0121 20.4265 15.3608C19.5913 15.5545 18.703 15.2565 18.1561 14.5965ZM26.5361 19.9227L22.3133 16.4513C22.8785 16.261 22.5363 16.3759 23.8111 15.9466L26.8916 18.4701C27.7012 19.1336 28.7332 19.4664 29.7794 19.4012C30.3168 20.1914 30.1524 19.95 30.5386 20.518C28.7625 20.6301 27.6944 20.8753 26.5361 19.9228V19.9227ZM20.3877 28.8201C19.7656 29.116 19.3631 29.7513 19.3631 30.4386C19.3631 31.4588 20.2215 32.2796 21.2502 32.2299L25.6389 32.0178C25.0228 33.7218 23.3861 34.9145 21.498 34.9145C19.0705 34.9145 17.0953 32.946 17.0953 30.5267C17.0953 26.9194 21.2627 24.8412 24.1534 27.0284L20.3877 28.8201ZM29.2449 31.8433C28.616 35.5614 25.3732 38.3571 21.4981 38.3571C17.1654 38.3571 13.6406 34.8447 13.6406 30.5267C13.6406 26.2087 17.1654 22.6964 21.4981 22.6964C22.6352 22.6954 23.7588 22.941 24.7912 23.416C25.8235 23.8911 26.7398 24.5842 27.4765 25.4474L25.7646 26.262C21.9963 22.509 15.4543 25.1537 15.4543 30.5267C15.4543 33.8478 18.1657 36.5496 21.4981 36.5496C24.3196 36.5496 26.7331 34.6088 27.3743 31.934C28.131 31.8969 27.7255 31.9165 29.2449 31.8433ZM31.8506 29.3123C31.2892 29.3123 30.8026 29.6517 30.5937 30.141L21.1708 30.5969C21.0803 30.6024 21.0042 30.5293 21.0042 30.4386C21.0042 30.3781 21.0396 30.3219 21.0943 30.2959C21.3776 30.1614 32.8764 24.6899 33.2529 24.5111L34.4052 26.2058C34.0121 27.206 33.9446 28.3148 34.1663 29.3123H31.8506ZM35.8672 29.3123C35.0225 26.7615 37.1177 24.1129 39.8807 24.4532C39.859 24.6861 39.8476 24.9198 39.8465 25.1537C39.8465 25.6871 40.1601 26.1743 40.6501 26.3927C40.6531 26.3945 40.6563 26.3961 40.6595 26.3974C41.6067 26.8116 42.1618 27.8373 41.9764 28.864C41.6546 30.6378 39.3454 31.4669 37.9354 29.8007C37.6732 29.4908 37.2967 29.3123 36.8917 29.3123H35.8672ZM43.3426 26.944C42.9709 26.0708 42.2759 25.361 41.4901 24.9798C41.5264 23.7975 41.9331 22.6457 42.6454 21.7103C43.4819 20.6091 44.3899 20.1867 45.0717 19.8338C47.9842 19.901 51.2284 21.4577 52.8758 23.6603C51.7171 25.1881 50.9109 27.2017 50.3537 29.0338C47.9598 29.2723 45.2528 28.3517 43.3426 26.944ZM58.5017 38.357C55.1086 38.357 52.143 36.2314 51.0604 33.0469C51.5846 30.3223 52.5878 26.6323 54.3177 24.4774L54.7518 25.8041C50.2876 29.3152 52.7797 36.5495 58.5017 36.5495C60.8576 36.5495 63.0143 35.1695 63.9969 33.0337C64.0418 32.9361 64.067 32.8306 64.071 32.7233C64.075 32.616 64.0578 32.509 64.0203 32.4083C63.9828 32.3077 63.9258 32.2153 63.8525 32.1366C63.7792 32.0579 63.6911 31.9944 63.5931 31.9496C63.4952 31.9049 63.3894 31.8798 63.2817 31.8758C63.174 31.8718 63.0666 31.8889 62.9656 31.9263C62.8646 31.9637 62.772 32.0205 62.693 32.0935C62.614 32.1666 62.5503 32.2544 62.5054 32.352C61.7894 33.9086 60.218 34.9144 58.5017 34.9144C56.0741 34.9144 54.0994 32.9458 54.0994 30.5266C54.0994 29.3825 54.5386 28.3112 55.3089 27.5061L56.5278 31.2318C56.9209 32.432 58.209 33.0771 59.4049 32.6888C60.6042 32.2987 61.2578 31.0163 60.8669 29.8215L59.7185 26.3125C61.1015 26.7082 62.2166 27.7598 62.6785 29.1364C62.7119 29.2392 62.7653 29.3343 62.8358 29.4164C62.9063 29.4984 62.9924 29.5658 63.0892 29.6144C63.1859 29.6631 63.2914 29.6922 63.3995 29.7001C63.5076 29.7079 63.6161 29.6943 63.7189 29.6601C63.8217 29.6258 63.9167 29.5716 63.9984 29.5006C64.08 29.4296 64.1467 29.3431 64.1947 29.2463C64.2426 29.1494 64.2708 29.044 64.2776 28.9362C64.2845 28.8284 64.2698 28.7203 64.2345 28.6182C63.8031 27.3334 62.9501 26.2309 61.8129 25.4886L63.8534 24.7937C69.035 29.5962 65.6478 38.357 58.5017 38.357Z" fill="#109CF1"/>
</svg>
