<svg width="23" height="23" viewBox="0 0 23 23" fill="none" xmlns="http://www.w3.org/2000/svg">
<path fill-rule="evenodd" clip-rule="evenodd" d="M21.6562 2.125H19.3125V0.5625H17.75V2.125H5.25V0.5625H3.6875V2.125H1.34375L0.5625 2.90625V21.6562L1.34375 22.4375H21.6562L22.4375 21.6562V2.90625L21.6562 2.125ZM20.875 20.875H2.125V6.8125H20.875V20.875ZM20.875 5.25H2.125V3.6875H20.875V5.25ZM5.25 11.5H3.6875V13.0625H5.25V11.5ZM3.6875 14.625H5.25V16.1875H3.6875V14.625ZM5.25 17.75H3.6875V19.3125H5.25V17.75ZM8.375 11.5H9.9375V13.0625H8.375V11.5ZM9.9375 14.625H8.375V16.1875H9.9375V14.625ZM8.375 17.75H9.9375V19.3125H8.375V17.75ZM9.9375 8.375H8.375V9.9375H9.9375V8.375ZM13.0625 11.5H14.625V13.0625H13.0625V11.5ZM14.625 14.625H13.0625V16.1875H14.625V14.625ZM13.0625 17.75H14.625V19.3125H13.0625V17.75ZM14.625 8.375H13.0625V9.9375H14.625V8.375ZM17.75 11.5H19.3125V13.0625H17.75V11.5ZM19.3125 14.625H17.75V16.1875H19.3125V14.625ZM17.75 8.375H19.3125V9.9375H17.75V8.375Z" fill="#109CF1"/>
</svg>
