<svg width="80" height="45" viewBox="0 0 80 45" fill="none" xmlns="http://www.w3.org/2000/svg">
<path d="M62.2664 18.3L59.3352 15.912L59.3 15.881L62.0289 15.325C62.2059 15.2891 62.3652 15.1917 62.4796 15.0496C62.5941 14.9074 62.6565 14.7292 62.6562 14.5455V12.1591C62.6562 11.9481 62.5739 11.7458 62.4274 11.5966C62.2809 11.4474 62.0822 11.3636 61.875 11.3636H57.9688C57.7616 11.3636 57.5628 11.4474 57.4163 11.5966C57.2698 11.7458 57.1875 11.9481 57.1875 12.1591V13.5527L57.1336 13.4788C57.084 13.3437 56.9982 13.2254 56.8859 13.1375C56.4461 12.5035 56.0695 11.8688 55.8242 11.3199L54.5039 8.36318C53.6625 6.47716 51.4094 5 49.375 5H30.625C28.5906 5 26.3375 6.47716 25.4961 8.36318L24.1766 11.3191C23.9313 11.868 23.5547 12.5035 23.1148 13.1375C23.0028 13.2257 22.9171 13.3438 22.8672 13.4788L22.8133 13.5527V12.1591C22.8133 11.9481 22.731 11.7458 22.5845 11.5966C22.4379 11.4474 22.2392 11.3636 22.032 11.3636H18.125C17.9178 11.3636 17.7191 11.4474 17.5726 11.5966C17.4261 11.7458 17.3438 11.9481 17.3438 12.1591V14.5455C17.3438 14.9249 17.6062 15.251 17.9719 15.325L20.7008 15.881L20.6656 15.912L17.7336 18.3C16.2008 19.5489 15 22.0927 15 24.0909V37.6136C15 38.9293 16.0516 40 17.3438 40H23.5938C24.8859 40 25.9375 38.9293 25.9375 37.6136V36.0227H54.0625V37.6136C54.0625 38.9293 55.1141 40 56.4062 40H62.6562C63.9484 40 65 38.9293 65 37.6136V24.0909C65 22.0927 63.7992 19.5489 62.2664 18.3ZM55.1672 34.4318L53.3758 32.6078C52.6156 31.8339 51.2313 31.25 50.1562 31.25H29.4531C28.3781 31.25 26.9937 31.8339 26.2336 32.6078L24.4422 34.4318H18.9062C17.6141 34.4318 16.5625 33.3611 16.5625 32.0455V28.0682H17.3438V28.8636C17.3438 30.6184 18.7453 32.0455 20.4688 32.0455H22.8125C23.0197 32.0455 23.2184 31.9616 23.3649 31.8125C23.5114 31.6633 23.5938 31.461 23.5938 31.25C23.5938 31.039 23.5114 30.8367 23.3649 30.6875C23.2184 30.5384 23.0197 30.4545 22.8125 30.4545H20.4688C19.607 30.4545 18.9062 29.741 18.9062 28.8636V28.0682H20.4688C21.1172 28.0682 22.125 28.493 22.5836 28.9599C22.656 29.034 22.742 29.0928 22.8368 29.133C22.9316 29.1731 23.0333 29.1938 23.1359 29.1938C23.2386 29.1938 23.3403 29.1731 23.435 29.133C23.5298 29.0928 23.6159 29.034 23.6883 28.9599C23.7609 28.8861 23.8185 28.7984 23.8578 28.7019C23.8971 28.6054 23.9173 28.502 23.9173 28.3975C23.9173 28.293 23.8971 28.1896 23.8578 28.0931C23.8185 27.9966 23.7609 27.9089 23.6883 27.8351C22.9281 27.0611 21.5445 26.4773 20.4688 26.4773H16.5625V24.0909C16.5625 23.8101 16.6063 23.507 16.668 23.1976C17.168 23.729 17.8953 24.0909 18.9062 24.0909H25.1562C25.3634 24.0909 25.5621 24.007 25.7086 23.8578L26.7188 22.8293L27.7289 23.8578C27.8014 23.9318 27.8875 23.9905 27.9822 24.0305C28.077 24.0705 28.1786 24.091 28.2812 24.0909H37.3328L39.4477 26.2442C39.52 26.3183 39.6061 26.3772 39.7009 26.4173C39.7957 26.4574 39.8973 26.4781 40 26.4781C40.1027 26.4781 40.2043 26.4574 40.2991 26.4173C40.3939 26.3772 40.48 26.3183 40.5523 26.2442L42.6672 24.0909H51.7188C51.9258 24.0909 52.125 24.0074 52.2711 23.8578L53.2812 22.8293L54.2914 23.8578C54.3639 23.9318 54.45 23.9905 54.5447 24.0305C54.6395 24.0705 54.7411 24.091 54.8438 24.0909H61.0938C62.1047 24.0909 62.832 23.729 63.332 23.1976C63.3938 23.507 63.4375 23.8101 63.4375 24.0909V26.4773H59.5312C58.4562 26.4773 57.0719 27.0611 56.3117 27.8351C56.2392 27.909 56.1816 27.9966 56.1424 28.0931C56.1031 28.1896 56.0829 28.2931 56.0829 28.3975C56.0829 28.5019 56.1031 28.6054 56.1424 28.7019C56.1816 28.7984 56.2392 28.886 56.3117 28.9599C56.3843 29.0337 56.4704 29.0923 56.5651 29.1323C56.6599 29.1723 56.7615 29.1928 56.8641 29.1928C56.9666 29.1928 57.0682 29.1723 57.163 29.1323C57.2578 29.0923 57.3439 29.0337 57.4164 28.9599C57.875 28.493 58.8828 28.0682 59.5312 28.0682H61.0938V28.8636C61.0938 29.741 60.393 30.4545 59.5312 30.4545H57.1875C56.9803 30.4545 56.7816 30.5384 56.6351 30.6875C56.4886 30.8367 56.4062 31.039 56.4062 31.25C56.4062 31.461 56.4886 31.6633 56.6351 31.8125C56.7816 31.9616 56.9803 32.0455 57.1875 32.0455H59.5312C61.2547 32.0455 62.6562 30.6184 62.6562 28.8636V28.0682H63.4375V32.0455C63.4375 33.3611 62.3859 34.4318 61.0938 34.4318H55.1672ZM52.9578 34.4318H26.6516L27.3383 33.7326C27.7969 33.2657 28.8047 32.8409 29.4531 32.8409H50.1562C50.8047 32.8409 51.8125 33.2657 52.2711 33.7326L52.9578 34.4318ZM24.0312 14.5455H55.9688C56.7258 15.5644 57.5906 16.5285 58.3586 17.1545L59.2984 17.9198L53.7727 20.1701L53.7711 20.1709C53.6737 20.2109 53.5852 20.2704 53.5109 20.3459L52.7297 21.1414L51.3953 22.5H42.3438C42.2411 22.4999 42.1395 22.5204 42.0447 22.5604C41.95 22.6004 41.8639 22.6591 41.7914 22.7331L40 24.557L38.2086 22.7331C38.1361 22.6591 38.05 22.6004 37.9553 22.5604C37.8605 22.5204 37.7589 22.4999 37.6562 22.5H28.6047L27.2711 21.1422L26.4898 20.3467C26.4155 20.2712 26.3271 20.2117 26.2297 20.1717L26.2281 20.1709L20.7023 17.9206L21.6422 17.1553C22.4094 16.5285 23.2742 15.5644 24.0312 14.5455ZM62.6102 21.2424C62.4531 22.0736 61.9469 22.5 61.0938 22.5H55.1672L54.3859 21.7045L54.5016 21.5868L60.7008 19.062L61.2898 19.5425C61.7852 19.9458 62.2422 20.5591 62.6102 21.2424ZM58.75 12.9545H61.0938V13.8932L58.75 14.3705V12.9545ZM25.5977 11.9777L26.9172 9.02182C27.5062 7.70375 29.2039 6.59091 30.625 6.59091H49.375C50.7961 6.59091 52.4937 7.70375 53.082 9.02102L54.4023 11.9777C54.5398 12.2848 54.7188 12.6165 54.9148 12.9545H25.0852C25.2812 12.6165 25.4609 12.2848 25.5977 11.9777ZM18.9062 12.9545H21.25V14.3705L18.9062 13.8932V12.9545ZM18.7094 19.5425L19.2984 19.062L25.4984 21.5868L25.6141 21.7045L24.8328 22.5H18.9062C18.0531 22.5 17.5469 22.0736 17.3898 21.2424C17.7578 20.5591 18.2141 19.9458 18.7094 19.5425ZM23.5938 38.4091H17.3438C16.9133 38.4091 16.5625 38.0519 16.5625 37.6136V35.2074C17.2349 35.7332 18.0584 36.0197 18.9062 36.0227H24.375V37.6136C24.375 38.0519 24.0242 38.4091 23.5938 38.4091ZM62.6562 38.4091H56.4062C55.9758 38.4091 55.625 38.0519 55.625 37.6136V36.0227H61.0938C61.9766 36.0227 62.7828 35.7117 63.4375 35.2074V37.6136C63.4375 38.0519 63.0867 38.4091 62.6562 38.4091Z" fill="black"/>
</svg>
