<svg width="40" height="28" viewBox="0 0 40 28" fill="none" xmlns="http://www.w3.org/2000/svg">
<path d="M37.8131 10.45L35.4681 8.57375L35.44 8.54938L37.6231 8.1125C37.7647 8.08428 37.8922 8.0078 37.9837 7.8961C38.0752 7.7844 38.1252 7.64441 38.125 7.5V5.625C38.125 5.45924 38.0592 5.30027 37.9419 5.18306C37.8247 5.06585 37.6658 5 37.5 5H34.375C34.2092 5 34.0503 5.06585 33.9331 5.18306C33.8158 5.30027 33.75 5.45924 33.75 5.625V6.72L33.7069 6.66188C33.6672 6.55574 33.5985 6.46285 33.5087 6.39375C33.1569 5.89562 32.8556 5.39687 32.6594 4.96562L31.6031 2.6425C30.93 1.16062 29.1275 0 27.5 0H12.5C10.8725 0 9.07 1.16062 8.39688 2.6425L7.34125 4.965C7.145 5.39625 6.84375 5.89562 6.49188 6.39375C6.40224 6.46302 6.33364 6.55585 6.29375 6.66188L6.25063 6.72V5.625C6.25063 5.45924 6.18478 5.30027 6.06757 5.18306C5.95036 5.06585 5.79139 5 5.62563 5H2.5C2.33424 5 2.17527 5.06585 2.05806 5.18306C1.94085 5.30027 1.875 5.45924 1.875 5.625V7.5C1.875 7.79812 2.085 8.05437 2.3775 8.1125L4.56062 8.54938L4.5325 8.57375L2.18688 10.45C0.960625 11.4312 0 13.43 0 15V25.625C0 26.6588 0.84125 27.5 1.875 27.5H6.875C7.90875 27.5 8.75 26.6588 8.75 25.625V24.375H31.25V25.625C31.25 26.6588 32.0912 27.5 33.125 27.5H38.125C39.1588 27.5 40 26.6588 40 25.625V15C40 13.43 39.0394 11.4312 37.8131 10.45ZM32.1338 23.125L30.7006 21.6919C30.0925 21.0838 28.985 20.625 28.125 20.625H11.5625C10.7025 20.625 9.595 21.0838 8.98687 21.6919L7.55375 23.125H3.125C2.09125 23.125 1.25 22.2838 1.25 21.25V18.125H1.875V18.75C1.875 20.1288 2.99625 21.25 4.375 21.25H6.25C6.41576 21.25 6.57473 21.1842 6.69194 21.0669C6.80915 20.9497 6.875 20.7908 6.875 20.625C6.875 20.4592 6.80915 20.3003 6.69194 20.1831C6.57473 20.0658 6.41576 20 6.25 20H4.375C3.68562 20 3.125 19.4394 3.125 18.75V18.125H4.375C4.89375 18.125 5.7 18.4587 6.06687 18.8256C6.12478 18.8839 6.19363 18.9301 6.26947 18.9616C6.3453 18.9932 6.42662 19.0094 6.50875 19.0094C6.59088 19.0094 6.6722 18.9932 6.74803 18.9616C6.82387 18.9301 6.89272 18.8839 6.95063 18.8256C7.00872 18.7676 7.0548 18.6988 7.08625 18.6229C7.11769 18.5471 7.13388 18.4658 7.13388 18.3838C7.13388 18.3017 7.11769 18.2204 7.08625 18.1446C7.0548 18.0687 7.00872 17.9999 6.95063 17.9419C6.3425 17.3338 5.23562 16.875 4.375 16.875H1.25V15C1.25 14.7794 1.285 14.5412 1.33437 14.2981C1.73437 14.7156 2.31625 15 3.125 15H8.125C8.29075 15 8.44969 14.9341 8.56687 14.8169L9.375 14.0088L10.1831 14.8169C10.2411 14.875 10.31 14.9211 10.3858 14.9525C10.4616 14.984 10.5429 15.0001 10.625 15H17.8663L19.5581 16.6919C19.616 16.7501 19.6849 16.7963 19.7607 16.8279C19.8366 16.8594 19.9179 16.8756 20 16.8756C20.0821 16.8756 20.1635 16.8594 20.2393 16.8279C20.3151 16.7963 20.384 16.7501 20.4419 16.6919L22.1338 15H29.375C29.5406 15 29.7 14.9344 29.8169 14.8169L30.625 14.0088L31.4331 14.8169C31.4911 14.875 31.56 14.9211 31.6358 14.9525C31.7116 14.984 31.7929 15.0001 31.875 15H36.875C37.6838 15 38.2656 14.7156 38.6656 14.2981C38.715 14.5412 38.75 14.7794 38.75 15V16.875H35.625C34.765 16.875 33.6575 17.3338 33.0494 17.9419C32.9913 17.9999 32.9453 18.0688 32.9139 18.1446C32.8825 18.2204 32.8663 18.3017 32.8663 18.3838C32.8663 18.4658 32.8825 18.5471 32.9139 18.6229C32.9453 18.6987 32.9913 18.7676 33.0494 18.8256C33.1074 18.8837 33.1763 18.9297 33.2521 18.9611C33.3279 18.9925 33.4092 19.0087 33.4912 19.0087C33.5733 19.0087 33.6546 18.9925 33.7304 18.9611C33.8062 18.9297 33.8751 18.8837 33.9331 18.8256C34.3 18.4587 35.1063 18.125 35.625 18.125H36.875V18.75C36.875 19.4394 36.3144 20 35.625 20H33.75C33.5842 20 33.4253 20.0658 33.3081 20.1831C33.1908 20.3003 33.125 20.4592 33.125 20.625C33.125 20.7908 33.1908 20.9497 33.3081 21.0669C33.4253 21.1842 33.5842 21.25 33.75 21.25H35.625C37.0038 21.25 38.125 20.1288 38.125 18.75V18.125H38.75V21.25C38.75 22.2838 37.9088 23.125 36.875 23.125H32.1338ZM30.3662 23.125H9.32125L9.87063 22.5756C10.2375 22.2087 11.0438 21.875 11.5625 21.875H28.125C28.6437 21.875 29.45 22.2087 29.8169 22.5756L30.3662 23.125ZM7.225 7.5H32.775C33.3806 8.30063 34.0725 9.05813 34.6869 9.55L35.4387 10.1513L31.0181 11.9194L31.0169 11.92C30.939 11.9514 30.8682 11.9982 30.8087 12.0575L30.1837 12.6825L29.1162 13.75H21.875C21.7929 13.7499 21.7116 13.766 21.6358 13.7975C21.56 13.8289 21.4911 13.875 21.4331 13.9331L20 15.3662L18.5669 13.9331C18.5089 13.875 18.44 13.8289 18.3642 13.7975C18.2884 13.766 18.2071 13.7499 18.125 13.75H10.8837L9.81687 12.6831L9.19187 12.0581C9.13243 11.9988 9.06165 11.952 8.98375 11.9206L8.9825 11.92L4.56187 10.1519L5.31375 9.55063C5.9275 9.05813 6.61938 8.30063 7.225 7.5ZM38.0881 12.7619C37.9625 13.415 37.5575 13.75 36.875 13.75H32.1338L31.5088 13.125L31.6013 13.0325L36.5606 11.0487L37.0319 11.4262C37.4281 11.7431 37.7938 12.225 38.0881 12.7619ZM35 6.25H36.875V6.9875L35 7.3625V6.25ZM8.47812 5.4825L9.53375 3.16C10.005 2.12437 11.3631 1.25 12.5 1.25H27.5C28.6369 1.25 29.995 2.12438 30.4656 3.15938L31.5219 5.4825C31.6319 5.72375 31.775 5.98437 31.9319 6.25H8.06813C8.225 5.98437 8.36875 5.72375 8.47812 5.4825ZM3.125 6.25H5V7.3625L3.125 6.9875V6.25ZM2.9675 11.4262L3.43875 11.0487L8.39875 13.0325L8.49125 13.125L7.86625 13.75H3.125C2.4425 13.75 2.0375 13.415 1.91188 12.7619C2.20625 12.225 2.57125 11.7431 2.9675 11.4262ZM6.875 26.25H1.875C1.53063 26.25 1.25 25.9694 1.25 25.625V23.7344C1.78796 24.1475 2.4467 24.3726 3.125 24.375H7.5V25.625C7.5 25.9694 7.21937 26.25 6.875 26.25ZM38.125 26.25H33.125C32.7806 26.25 32.5 25.9694 32.5 25.625V24.375H36.875C37.5812 24.375 38.2263 24.1306 38.75 23.7344V25.625C38.75 25.9694 38.4694 26.25 38.125 26.25Z" fill="#109CF1"/>
</svg>
