<svg width="41" height="41" viewBox="0 0 41 41" fill="none" xmlns="http://www.w3.org/2000/svg">
<circle cx="20.5" cy="20.5" r="20.5" fill="#E4E7EB"/>
<path d="M21 10.25C21.8035 10.25 22.5889 10.4883 23.257 10.9347C23.9251 11.381 24.4458 12.0155 24.7533 12.7578C25.0607 13.5002 25.1412 14.317 24.9844 15.1051C24.8277 15.8931 24.4408 16.617 23.8726 17.1851C23.3045 17.7533 22.5806 18.1402 21.7926 18.2969C21.0045 18.4537 20.1877 18.3732 19.4454 18.0658C18.703 17.7583 18.0686 17.2376 17.6222 16.5695C17.1758 15.9014 16.9375 15.116 16.9375 14.3125C16.9375 13.2351 17.3655 12.2017 18.1274 11.4399C18.8892 10.678 19.9226 10.25 21 10.25ZM21 8.625C19.8751 8.625 18.7755 8.95857 17.8402 9.58352C16.9049 10.2085 16.1759 11.0967 15.7454 12.136C15.315 13.1752 15.2023 14.3188 15.4218 15.4221C15.6412 16.5253 16.1829 17.5388 16.9783 18.3342C17.7737 19.1296 18.7872 19.6713 19.8904 19.8907C20.9937 20.1102 22.1373 19.9975 23.1765 19.5671C24.2158 19.1366 25.104 18.4076 25.729 17.4723C26.3539 16.537 26.6875 15.4374 26.6875 14.3125C26.6875 12.8041 26.0883 11.3574 25.0217 10.2908C23.9551 9.22422 22.5084 8.625 21 8.625Z" fill="black"/>
<path d="M29.125 31.375H27.5V27.3125C27.5 26.779 27.3949 26.2507 27.1908 25.7578C26.9866 25.265 26.6874 24.8171 26.3101 24.4399C25.9329 24.0626 25.485 23.7634 24.9922 23.5592C24.4993 23.3551 23.971 23.25 23.4375 23.25H18.5625C17.4851 23.25 16.4517 23.678 15.6899 24.4399C14.928 25.2017 14.5 26.2351 14.5 27.3125V31.375H12.875V27.3125C12.875 25.8041 13.4742 24.3574 14.5408 23.2908C15.6074 22.2242 17.0541 21.625 18.5625 21.625H23.4375C24.9459 21.625 26.3926 22.2242 27.4592 23.2908C28.5258 24.3574 29.125 25.8041 29.125 27.3125V31.375Z" fill="black"/>
</svg>
