<svg width="36" height="32" viewBox="0 0 36 32" fill="none" xmlns="http://www.w3.org/2000/svg">
<path d="M34.5 0.25C34.91 0.25 35.26 0.4 35.55 0.7C35.85 0.99 36 1.34 36 1.75V30.25C36 30.66 35.85 31.01 35.55 31.3C35.26 31.6 34.91 31.75 34.5 31.75H10.5C10.09 31.75 9.74 31.6 9.45 31.3C9.15 31.01 9 30.66 9 30.25V25H1.5C1.09 25 0.74 24.85 0.45 24.55C0.15 24.26 0 23.91 0 23.5V8.5C0 8.09 0.15 7.74 0.45 7.45C0.73 7.15 1.08 7 1.5 7H9V1.75C9 1.34 9.15 0.99 9.45 0.7C9.74 0.4 10.09 0.25 10.5 0.25H34.5ZM9 17.92L11.13 21.91H14.34L10.77 16.105L14.28 10.405H11.19L9.24 14.005L9.165 14.125L9.105 14.26L8.145 12.34L7.155 10.405H3.885L7.29 16.135L3.57 21.91H6.81L9 17.92ZM21.375 29.5V25H11.25V29.5H21.375ZM21.375 22.75V17.125H18V22.75H21.375ZM21.375 14.875V9.25H18V14.875H21.375ZM21.375 7V2.5H11.25V7H21.375ZM33.75 29.5V25H23.625V29.5H33.75ZM33.75 22.75V17.125H23.625V22.75H33.75ZM33.75 14.875V9.25H23.625V14.875H33.75ZM33.75 7V2.5H23.625V7H33.75Z" fill="#4DB142"/>
</svg>
