<svg width="80" height="45" viewBox="0 0 80 45" fill="none" xmlns="http://www.w3.org/2000/svg">
<path d="M18.5714 32.4998L16.6129 32.4998C15.7258 32.4998 15 31.6971 15 30.716L15.0239 8.49868C15.0245 7.94682 15.4721 7.49976 16.0239 7.49976H55.3922C55.8422 7.49976 56.2368 7.80036 56.3563 8.23423L59.2678 18.8057C59.3243 19.011 59.4449 19.1929 59.612 19.3249L64.6199 23.2808C64.8599 23.4704 65 23.7595 65 24.0655V30.716C65 31.6971 64.2742 32.4998 63.3871 32.4998L57.8571 32.4998" stroke="black" stroke-width="2" stroke-linejoin="round"/>
<path d="M24.4223 37.5001C21.4727 37.5001 19.0816 35.2637 19.0816 32.5048C19.0816 29.746 21.4727 27.5095 24.4223 27.5095C27.3718 27.5095 29.7629 29.746 29.7629 32.5048C29.7629 35.2637 27.3718 37.5001 24.4223 37.5001Z" stroke="black" stroke-width="2"/>
<path d="M51.8912 37.5001C48.9417 37.5001 46.5506 35.2637 46.5506 32.5048C46.5506 29.746 48.9417 27.5095 51.8912 27.5095C54.8408 27.5095 57.2319 29.746 57.2319 32.5048C57.2319 35.2637 54.8408 37.5001 51.8912 37.5001Z" stroke="black" stroke-width="2"/>
<path d="M46.1621 32.9587H30.3064" stroke="black" stroke-width="2"/>
<path d="M64.9028 29.3254H59.1737" stroke="black" stroke-width="2" stroke-linecap="round"/>
<path d="M34.3877 19.4998L14.9999 19.4998" stroke="black" stroke-width="2"/>
<path d="M25.1877 7.52808V19.3352" stroke="black" stroke-width="2"/>
<path d="M59.3875 19.3352H44.6082" stroke="black" stroke-width="2"/>
<path d="M48.0647 22.0598H46.4847" stroke="black" stroke-width="2" stroke-linecap="round"/>
<path d="M32.3469 23.4998L18.0612 23.4998" stroke="black" stroke-width="2" stroke-linecap="round"/>
<path d="M35.8979 7.52808C35.3456 7.52808 34.8979 7.97579 34.8979 8.52808V31.9587C34.8979 32.511 35.3456 32.9587 35.8979 32.9587H42.6372C43.1895 32.9587 43.6372 32.511 43.6372 31.9587V8.52808C43.6372 7.97579 43.1895 7.52808 42.6372 7.52808H35.8979Z" stroke="black" stroke-width="2"/>
<path d="M24.9309 32.6302C24.9309 33.0885 24.5804 33.4013 24.2192 33.4013C23.8581 33.4013 23.5076 33.0885 23.5076 32.6302C23.5076 32.1719 23.8581 31.8591 24.2192 31.8591C24.5804 31.8591 24.9309 32.1719 24.9309 32.6302Z" fill="black" stroke="black" stroke-width="2"/>
<path d="M52.6957 32.3591C52.6957 32.6163 52.4773 32.8591 52.1651 32.8591C51.8529 32.8591 51.6345 32.6163 51.6345 32.3591C51.6345 32.1019 51.8529 31.8591 52.1651 31.8591C52.4773 31.8591 52.6957 32.1019 52.6957 32.3591Z" fill="black" stroke="black" stroke-width="2"/>
</svg>
