<svg width="80" height="45" viewBox="0 0 80 45" fill="none" xmlns="http://www.w3.org/2000/svg">
<path d="M15.641 32.9998L11.0256 32.9998H11C10.4477 32.9998 10 32.552 10 31.9998V31.216L10.024 8.99867C10.0246 8.44681 10.4722 7.99976 11.024 7.99976H60.3479C60.7974 7.99976 61.1917 8.29972 61.3116 8.73297L64.2383 19.3052C64.2952 19.5108 64.4164 19.6928 64.5841 19.8246L69.6179 23.7808C69.8592 23.9704 70 24.2602 70 24.567V31.216C70 32.1971 69.2705 32.9998 68.3788 32.9998L62.8205 32.9998M29.9754 19.4998H19.719" stroke="black" stroke-width="2" stroke-linejoin="round"/>
<path d="M21.5221 37.5001C18.5574 37.5001 16.154 35.2637 16.154 32.5048C16.154 29.746 18.5574 27.5095 21.5221 27.5095C24.4868 27.5095 26.8901 29.746 26.8901 32.5048C26.8901 35.2637 24.4868 37.5001 21.5221 37.5001Z" stroke="black" stroke-width="2"/>
<path d="M56.7992 37.5001C53.8345 37.5001 51.4311 35.2637 51.4311 32.5048C51.4311 29.746 53.8345 27.5095 56.7992 27.5095C59.7639 27.5095 62.1672 29.746 62.1672 32.5048C62.1672 35.2637 59.7639 37.5001 56.7992 37.5001Z" stroke="black" stroke-width="2"/>
<path d="M51.041 32.9587H27.4362" stroke="black" stroke-width="2"/>
<path d="M69.8777 29.3254H64.1192" stroke="black" stroke-width="2" stroke-linecap="round"/>
<path d="M39.2063 19.4998L10.4884 19.4998" stroke="black" stroke-width="2"/>
<path d="M29.959 7.52808V19.3352" stroke="black" stroke-width="2"/>
<path d="M19.719 7.49976V19.3068" stroke="black" stroke-width="2"/>
<path d="M64.3342 19.3352H49.4791" stroke="black" stroke-width="2"/>
<path d="M52.9529 22.0598H51.3648" stroke="black" stroke-width="2" stroke-linecap="round"/>
<path d="M36.6667 23.4998L13.077 23.4998" stroke="black" stroke-width="2" stroke-linecap="round"/>
<path d="M35.6411 27.4998L29.4873 27.4998" stroke="black" stroke-width="2" stroke-linecap="round"/>
<path d="M39.7189 8.49976V32.4998H48.9497V8.49976H39.7189Z" stroke="black" stroke-width="2"/>
<path d="M22.0383 32.6302C22.0383 33.0836 21.6886 33.4013 21.3178 33.4013C20.9471 33.4013 20.5974 33.0836 20.5974 32.6302C20.5974 32.1768 20.9471 31.8591 21.3178 31.8591C21.6886 31.8591 22.0383 32.1768 22.0383 32.6302Z" fill="black" stroke="black" stroke-width="2"/>
<path d="M57.6133 32.3591C57.6133 32.6116 57.3962 32.8591 57.0748 32.8591C56.7534 32.8591 56.5364 32.6116 56.5364 32.3591C56.5364 32.1067 56.7534 31.8591 57.0748 31.8591C57.3962 31.8591 57.6133 32.1067 57.6133 32.3591Z" fill="black" stroke="black" stroke-width="2"/>
</svg>
