<svg width="28" height="36" viewBox="0 0 28 36" fill="none" xmlns="http://www.w3.org/2000/svg">
<path d="M5 0C3.80653 0 2.66193 0.474106 1.81802 1.31802C0.974106 2.16193 0.5 3.30653 0.5 4.5V31.5C0.5 32.6935 0.974106 33.8381 1.81802 34.682C2.66193 35.5259 3.80653 36 5 36H23C24.1935 36 25.3381 35.5259 26.182 34.682C27.0259 33.8381 27.5 32.6935 27.5 31.5V4.5C27.5 3.30653 27.0259 2.16193 26.182 1.31802C25.3381 0.474106 24.1935 0 23 0L5 0ZM5 2.25H23C23.5967 2.25 24.169 2.48705 24.591 2.90901C25.0129 3.33097 25.25 3.90326 25.25 4.5V31.5C25.25 32.0967 25.0129 32.669 24.591 33.091C24.169 33.5129 23.5967 33.75 23 33.75H5C4.40326 33.75 3.83097 33.5129 3.40901 33.091C2.98705 32.669 2.75 32.0967 2.75 31.5V4.5C2.75 3.90326 2.98705 3.33097 3.40901 2.90901C3.83097 2.48705 4.40326 2.25 5 2.25Z" fill="#4DB142"/>
<path d="M6.35688 27.1957C5.91834 27.0203 5.56501 26.6815 5.37138 26.2507C4.93263 25.3777 5.07888 24.5047 5.55138 23.7712C5.99688 23.0805 6.73488 22.4932 7.56963 22.0005C8.62699 21.4008 9.74468 20.9143 10.9041 20.5492C11.8045 18.9305 12.6026 17.257 13.2936 15.5385C12.8805 14.5997 12.5566 13.6242 12.3261 12.6247C12.1326 11.7247 12.0584 10.8337 12.2226 10.0687C12.3914 9.27223 12.8391 8.55673 13.6851 8.21698C14.1171 8.04373 14.5851 7.94698 15.0396 8.04373C15.2683 8.0924 15.4832 8.19134 15.6688 8.33339C15.8544 8.47544 16.0061 8.65702 16.1129 8.86498C16.3109 9.23398 16.3829 9.66598 16.3986 10.0755C16.4144 10.4962 16.3716 10.9642 16.2929 11.457C16.1039 12.6045 15.6854 14.0085 15.1229 15.4935C15.7436 16.821 16.4816 18.0905 17.3279 19.287C18.3294 19.2079 19.3366 19.2456 20.3294 19.3995C21.1484 19.5457 21.9809 19.8382 22.4894 20.4457C22.7594 20.7697 22.9236 21.1657 22.9394 21.6112C22.9551 22.0432 22.8336 22.4707 22.6289 22.878C22.4515 23.2554 22.1765 23.5785 21.8324 23.814C21.4922 24.0359 21.0905 24.1446 20.6849 24.1245C19.9401 24.093 19.2134 23.6835 18.5856 23.1862C17.8224 22.555 17.1345 21.8378 16.5359 21.0487C15.0143 21.2213 13.5108 21.527 12.0426 21.9622C11.3695 23.1547 10.6013 24.2909 9.74538 25.3597C9.09288 26.1472 8.37738 26.8335 7.66188 27.1305C7.25078 27.3165 6.78448 27.3398 6.35688 27.1957ZM9.45963 22.9185C9.08613 23.0895 8.73963 23.2695 8.42688 23.454C7.68888 23.8905 7.20963 24.3157 6.97113 24.6847C6.75963 25.011 6.75513 25.2472 6.88113 25.497C6.90363 25.5465 6.92613 25.578 6.93963 25.596C6.96646 25.5888 6.99278 25.5798 7.01838 25.569C7.32663 25.443 7.81713 25.0402 8.44713 24.282C8.80543 23.8433 9.14329 23.3883 9.45963 22.9185ZM13.1496 19.926C13.9009 19.7505 14.6591 19.6056 15.4221 19.4917C15.0123 18.8649 14.6294 18.2208 14.2746 17.5612C13.9218 18.3591 13.5466 19.1469 13.1496 19.9237V19.926ZM18.6531 20.9385C18.9906 21.303 19.3191 21.6135 19.6319 21.861C20.1719 22.2885 20.5476 22.4302 20.7524 22.437C20.8072 22.4441 20.8628 22.4322 20.9099 22.4032C21.0035 22.3293 21.0763 22.2324 21.1214 22.122C21.2014 21.9849 21.2469 21.8305 21.2541 21.672C21.2528 21.6191 21.232 21.5686 21.1956 21.5302C21.0786 21.3907 20.7456 21.1882 20.0301 21.06C19.575 20.9839 19.1146 20.944 18.6531 20.9407V20.9385ZM14.1756 13.05C14.365 12.4391 14.5153 11.8169 14.6256 11.187C14.6954 10.764 14.7224 10.4152 14.7111 10.1407C14.7117 9.98928 14.6874 9.83877 14.6391 9.69523C14.5266 9.70916 14.4167 9.73948 14.3129 9.78523C14.1171 9.86398 13.9574 10.0237 13.8719 10.422C13.7819 10.854 13.8044 11.4772 13.9754 12.2715C14.0294 12.5212 14.0969 12.7822 14.1779 13.05H14.1756Z" fill="#4DB142"/>
</svg>
