<svg width="80" height="45" viewBox="0 0 80 45" fill="none" xmlns="http://www.w3.org/2000/svg">
<path d="M25.7417 12.2368C25.2026 12.2368 24.7651 12.5905 24.7651 13.0263C24.7651 13.4621 25.2026 13.8158 25.7417 13.8158C26.2808 13.8158 26.7183 13.4621 26.7183 13.0263C26.7183 12.5905 26.2808 12.2368 25.7417 12.2368Z" fill="#109CF1"/>
<path d="M60.9887 18.989L59.5757 16.7043C59.0761 15.8965 58.0721 15.3947 56.9553 15.3947H48.7877V9.86844C48.7877 8.56252 47.4735 7.5 45.8581 7.5H17.9296C16.3142 7.5 15 8.56244 15 9.86844V30.3947C15 31.7006 16.3142 32.7631 17.9296 32.7631H20.8592C20.8592 33.9753 21.4261 35.0823 22.3559 35.921H15.9766C15.4372 35.921 15 36.2745 15 36.7105C15 37.1465 15.4372 37.5 15.9766 37.5H64.0214C64.5608 37.5 64.998 37.1465 64.998 36.7105C64.998 36.2745 64.5608 35.921 64.0214 35.921H61.5482C62.4781 35.0822 63.0449 33.9753 63.0449 32.7631C63.0449 32.7181 63.0422 32.6734 63.0407 32.6284C64.1795 32.3035 64.9979 31.4252 64.9979 30.3947V26.0305C64.9979 25.1092 65.2236 25.9693 60.9887 18.989ZM59.5118 20.1315L62.4414 24.8684H52.6937V20.1315H59.5118ZM16.953 26.4473H18.9061V28.0263H16.953V26.4473ZM26.7183 35.921C24.5644 35.921 22.8122 34.5043 22.8122 32.7631C22.8122 32.5481 22.8386 32.3364 22.8913 32.1306C23.2586 30.6673 24.8681 29.6052 26.7183 29.6052C28.5684 29.6052 30.178 30.6672 30.5452 32.1306L30.5461 32.1339C30.598 32.3363 30.6243 32.5481 30.6243 32.7631C30.6243 34.5044 28.8721 35.921 26.7183 35.921ZM26.7183 28.0263C24.2162 28.0263 22.0081 29.3221 21.194 31.1841H17.9296C17.3911 31.1841 16.953 30.8299 16.953 30.3946V29.6051H19.8826C20.422 29.6051 20.8592 29.2516 20.8592 28.8156V25.6577C20.8592 25.2218 20.422 24.8682 19.8826 24.8682H16.953V9.86844C16.953 9.4331 17.3911 9.07893 17.9296 9.07893H45.8581C46.3966 9.07893 46.8346 9.4331 46.8346 9.86844V31.1842H32.242C31.4265 29.3211 29.2192 28.0263 26.7183 28.0263ZM31.0807 35.921C32.0105 35.0822 32.5773 33.9753 32.5773 32.7631H51.3265C51.3265 33.9753 51.8934 35.0823 52.8232 35.921H31.0807ZM57.1857 35.921C55.0319 35.921 53.2797 34.5043 53.2797 32.7631C53.2797 32.5481 53.306 32.3364 53.3588 32.1306C53.726 30.6673 55.3355 29.6052 57.1857 29.6052C59.0359 29.6052 60.6455 30.6672 61.0127 32.1306L61.0135 32.1339C61.0655 32.3363 61.0918 32.5481 61.0918 32.7631C61.0919 34.5044 59.3395 35.921 57.1857 35.921ZM63.0449 30.3947C63.0449 30.6573 62.8848 30.8896 62.6402 31.0333C61.7739 29.2515 59.6186 28.0263 57.1857 28.0263C54.6837 28.0263 52.4756 29.3221 51.6615 31.1842H48.7876V16.9737H56.9552C57.1368 16.9732 57.3148 17.0139 57.4692 17.0911C57.6236 17.1682 57.7482 17.2788 57.8288 17.4103L58.5352 18.5526H51.7173C51.1779 18.5526 50.7407 18.9061 50.7407 19.3421V25.6579C50.7407 26.0939 51.1779 26.4474 51.7173 26.4474H63.0449V30.3947Z" fill="#109CF1"/>
<path d="M41.9522 12.2368H29.648C29.1086 12.2368 28.6714 12.5904 28.6714 13.0263C28.6714 13.4623 29.1086 13.8158 29.648 13.8158H41.9522C42.4916 13.8158 42.9288 13.4623 42.9288 13.0263C42.9288 12.5904 42.4915 12.2368 41.9522 12.2368ZM41.9522 15.3947H33.5541C33.0147 15.3947 32.5775 15.7482 32.5775 16.1842C32.5775 16.6202 33.0147 16.9737 33.5541 16.9737H41.9522C42.4916 16.9737 42.9288 16.6202 42.9288 16.1842C42.9288 15.7482 42.4915 15.3947 41.9522 15.3947ZM57.1859 31.1842C56.1089 31.1842 55.2329 31.8925 55.2329 32.7631C55.2329 33.6338 56.109 34.342 57.1859 34.342C58.2628 34.342 59.1389 33.6337 59.1389 32.7631C59.1389 31.8924 58.2628 31.1842 57.1859 31.1842ZM26.7184 31.1842C25.6415 31.1842 24.7654 31.8925 24.7654 32.7631C24.7654 33.6338 25.6416 34.342 26.7184 34.342C27.7954 34.342 28.6714 33.6337 28.6714 32.7631C28.6714 31.8924 27.7954 31.1842 26.7184 31.1842Z" fill="#109CF1"/>
</svg>
