<svg width="80" height="45" viewBox="0 0 80 45" fill="none" xmlns="http://www.w3.org/2000/svg">
<path d="M21.2217 32.2998H21.2122C20.7268 32.2998 20.3381 32.6707 20.3381 33.1282C20.3381 33.5858 20.7363 33.9567 21.2217 33.9567C21.4548 33.9567 21.6784 33.8694 21.8432 33.714C22.008 33.5587 22.1006 33.348 22.1006 33.1282C22.1006 32.9085 22.008 32.6978 21.8432 32.5425C21.6784 32.3871 21.4548 32.2998 21.2217 32.2998ZM28.7369 32.2998H28.7275C28.2421 32.2998 27.8533 32.6707 27.8533 33.1282C27.8533 33.5858 28.2515 33.9567 28.7369 33.9567C28.97 33.9567 29.1935 33.8694 29.3583 33.714C29.5232 33.5587 29.6158 33.348 29.6158 33.1282C29.6158 32.9085 29.5232 32.6978 29.3583 32.5425C29.1935 32.3871 28.97 32.2998 28.7369 32.2998ZM59.7368 32.2998H59.7274C59.242 32.2998 58.8532 32.6707 58.8532 33.1282C58.8532 33.5858 59.2514 33.9567 59.7368 33.9567C59.9699 33.9567 60.1934 33.8694 60.3582 33.714C60.5231 33.5587 60.6157 33.348 60.6157 33.1282C60.6157 32.9085 60.5231 32.6978 60.3582 32.5425C60.1934 32.3871 59.9699 32.2998 59.7368 32.2998Z" fill="#109CF1"/>
<path d="M69.1923 22.2808L68.0106 21.1666L65.6299 14.4325C65.8298 14.3725 66.0003 14.2472 66.1107 14.079C66.2211 13.9109 66.2641 13.7111 66.232 13.5157C66.1999 13.3203 66.0947 13.1422 65.9354 13.0135C65.7762 12.8849 65.5734 12.8141 65.3637 12.8141H56.8487V9.21441C56.8487 8.26903 56.0331 7.5 55.0304 7.5H11.8183C10.8156 7.5 10 8.26914 10 9.21441V28.7003C10 29.6457 10.8156 30.4147 11.8183 30.4147H12.8181V32.2427C12.8181 33.1881 13.6338 33.9571 14.6364 33.9571H16.6604C17.0724 35.9725 18.9562 37.5 21.2122 37.5C22.7569 37.5 24.1267 36.7833 24.9697 35.6848C25.8127 36.7833 27.1825 37.5 28.7273 37.5C30.9833 37.5 32.8672 35.9725 33.2791 33.9571H55.1754C55.5874 35.9725 57.4712 37.5 59.7272 37.5C62.2838 37.5 64.3636 35.5389 64.3636 33.1284C64.3636 33.1094 64.3623 33.0908 64.3621 33.0719H68.1817C69.1844 33.0719 70 32.3028 70 31.3575V24.1193C70.001 23.7777 69.9302 23.4393 69.7915 23.1237C69.6529 22.8081 69.4492 22.5216 69.1923 22.2808ZM16.6604 32.2999H14.6364C14.6285 32.2999 14.6206 32.2984 14.6133 32.2955C14.6059 32.2927 14.5993 32.2885 14.5937 32.2832C14.588 32.2779 14.5836 32.2716 14.5805 32.2647C14.5775 32.2577 14.5759 32.2503 14.5759 32.2428V30.4148H17.5812C17.1176 30.964 16.8017 31.6107 16.6604 32.2999ZM21.2122 35.8428C19.6249 35.8428 18.3336 34.6252 18.3336 33.1287C18.3336 31.6378 19.6153 30.4241 21.1942 30.4148H21.2303C22.8093 30.424 24.091 31.6377 24.091 33.1287C24.0909 34.6252 22.7995 35.8428 21.2122 35.8428ZM28.7274 35.8428C27.1401 35.8428 25.8487 34.6252 25.8487 33.1287C25.8487 31.6378 27.1304 30.4241 28.7094 30.4148H28.7455C30.3244 30.424 31.6061 31.6377 31.6061 33.1287C31.606 34.6252 30.3147 35.8428 28.7274 35.8428ZM55.1755 32.2999H33.2792C33.1379 31.6107 32.8219 30.9639 32.3582 30.4147H49.3939C49.627 30.4147 49.8506 30.3274 50.0154 30.172C50.1802 30.0166 50.2728 29.8058 50.2728 29.586C50.2728 29.3663 50.1802 29.1555 50.0154 29.0001C49.8506 28.8446 49.627 28.7573 49.3939 28.7573H11.8183C11.8022 28.7573 11.7869 28.7513 11.7755 28.7406C11.7642 28.7299 11.7578 28.7154 11.7578 28.7003V9.21441C11.7578 9.18292 11.7849 9.1574 11.8183 9.1574H55.0303C55.0637 9.1574 55.0908 9.18292 55.0908 9.21441V28.7574H53.1519C52.9188 28.7574 52.6953 28.8448 52.5304 29.0002C52.3656 29.1556 52.273 29.3664 52.273 29.5861C52.273 29.8059 52.3656 30.0167 52.5304 30.1721C52.6953 30.3275 52.9188 30.4148 53.1519 30.4148H56.0964C55.6327 30.964 55.3168 31.6107 55.1755 32.2999ZM66.3361 21.6712H60.6667C60.6507 21.6712 60.6353 21.6652 60.6239 21.6545C60.6126 21.6438 60.6062 21.6293 60.6062 21.6142V18.0142H65.0433L66.3361 21.6712ZM59.7273 35.8428C58.14 35.8428 56.8487 34.6252 56.8487 33.1287C56.8487 31.6378 58.1304 30.4241 59.7094 30.4148H59.7274L59.7335 30.4145C61.318 30.4176 62.6061 31.6339 62.6061 33.1286C62.6059 34.6252 61.3146 35.8428 59.7273 35.8428ZM68.2423 31.3577C68.2423 31.3728 68.2359 31.3873 68.2246 31.398C68.2132 31.4087 68.1979 31.4147 68.1818 31.4147H63.9921C63.2837 29.8538 61.639 28.7571 59.7273 28.7571C59.7212 28.7571 59.7154 28.7576 59.7093 28.7576H56.8487V14.5284C56.8487 14.4969 56.8758 14.4713 56.9092 14.4713H63.7908L64.4574 16.3568H59.7273C59.4942 16.3568 59.2707 16.4441 59.1058 16.5995C58.941 16.7549 58.8484 16.9657 58.8484 17.1855V21.6142C58.8484 22.5596 59.664 23.3286 60.6667 23.3286H67.8177L67.9494 23.4528C68.0426 23.5401 68.1164 23.644 68.1667 23.7584C68.2169 23.8729 68.2426 23.9955 68.2423 24.1194V26.1003H67.2424C67.0093 26.1003 66.7858 26.1876 66.621 26.343C66.4561 26.4984 66.3635 26.7092 66.3635 26.929C66.3635 27.1488 66.4561 27.3596 66.621 27.515C66.7858 27.6704 67.0093 27.7577 67.2424 27.7577H68.2423V31.3577Z" fill="#109CF1"/>
<path d="M52.2121 25.2144H14.6365C14.4034 25.2144 14.1798 25.3016 14.015 25.457C13.8502 25.6124 13.7576 25.8231 13.7576 26.0428C13.7576 26.2625 13.8502 26.4732 14.015 26.6286C14.1798 26.784 14.4034 26.8712 14.6365 26.8712H52.2121C52.4452 26.8712 52.6688 26.784 52.8336 26.6286C52.9984 26.4732 53.091 26.2625 53.091 26.0428C53.091 25.8231 52.9984 25.6124 52.8336 25.457C52.6688 25.3016 52.4452 25.2144 52.2121 25.2144Z" fill="#109CF1"/>
</svg>
