<svg width="19" height="22" viewBox="0 0 19 22" fill="none" xmlns="http://www.w3.org/2000/svg">
<path d="M6.95142 8.15088H8.45142V17.1509H6.95142V8.15088Z" fill="#D63830"/>
<path d="M11.4514 8.15088H12.9514V17.1509H11.4514V8.15088Z" fill="#D63830"/>
<path d="M0.951416 3.65088V5.15088H2.45142V20.1509C2.45142 20.5487 2.60945 20.9302 2.89076 21.2115C3.17206 21.4928 3.55359 21.6509 3.95142 21.6509H15.9514C16.3492 21.6509 16.7308 21.4928 17.0121 21.2115C17.2934 20.9302 17.4514 20.5487 17.4514 20.1509V5.15088H18.9514V3.65088H0.951416ZM3.95142 20.1509V5.15088H15.9514V20.1509H3.95142Z" fill="#D63830"/>
<path d="M6.95142 0.650879H12.9514V2.15088H6.95142V0.650879Z" fill="#D63830"/>
</svg>
